<svg xmlns="http://www.w3.org/2000/svg" xmlns:xlink="http://www.w3.org/1999/xlink" width="500" zoomAndPan="magnify" viewBox="0 0 375 374.999991" height="500" preserveAspectRatio="xMidYMid meet" version="1.0"><defs><clipPath id="ccfce1f6ea"><path d="M 48.964844 50.816406 L 126.246094 50.816406 L 126.246094 128.101562 L 48.964844 128.101562 Z M 48.964844 50.816406 " clip-rule="nonzero"/></clipPath><clipPath id="a6a1591fae"><path d="M 87.605469 50.816406 C 66.265625 50.816406 48.964844 68.117188 48.964844 89.457031 C 48.964844 110.800781 66.265625 128.101562 87.605469 128.101562 C 108.945312 128.101562 126.246094 110.800781 126.246094 89.457031 C 126.246094 68.117188 108.945312 50.816406 87.605469 50.816406 Z M 87.605469 50.816406 " clip-rule="nonzero"/></clipPath><clipPath id="28f87dae91"><path d="M 0.964844 0.816406 L 78.246094 0.816406 L 78.246094 78.101562 L 0.964844 78.101562 Z M 0.964844 0.816406 " clip-rule="nonzero"/></clipPath><clipPath id="79b17e175e"><path d="M 39.605469 0.816406 C 18.265625 0.816406 0.964844 18.117188 0.964844 39.457031 C 0.964844 60.800781 18.265625 78.101562 39.605469 78.101562 C 60.945312 78.101562 78.246094 60.800781 78.246094 39.457031 C 78.246094 18.117188 60.945312 0.816406 39.605469 0.816406 Z M 39.605469 0.816406 " clip-rule="nonzero"/></clipPath><clipPath id="3f50dd0164"><rect x="0" width="79" y="0" height="79"/></clipPath><clipPath id="139519c346"><path d="M 48.5 213.390625 L 126.5 213.390625 L 126.5 341.640625 L 48.5 341.640625 Z M 48.5 213.390625 " clip-rule="nonzero"/></clipPath></defs><path stroke-linecap="round" transform="matrix(0.53033, 0.53033, -0.53033, 0.53033, 175.835736, 33.364971)" fill="none" stroke-linejoin="miter" d="M 23.001666 23.001286 L 261.094109 22.997603 " stroke="#000000" stroke-width="46" stroke-opacity="1" stroke-miterlimit="4"/><path stroke-linecap="round" transform="matrix(0.544206, -0.516081, 0.516081, 0.544206, 146.64329, 309.026142)" fill="none" stroke-linejoin="miter" d="M 23.002367 23.000129 L 263.267465 23.000373 " stroke="#000000" stroke-width="46" stroke-opacity="1" stroke-miterlimit="4"/><g clip-path="url(#ccfce1f6ea)"><g clip-path="url(#a6a1591fae)"><g transform="matrix(1, 0, 0, 1, 48, 50)"><g clip-path="url(#3f50dd0164)"><g clip-path="url(#28f87dae91)"><g clip-path="url(#79b17e175e)"><path fill="#000000" d="M 0.964844 0.816406 L 78.246094 0.816406 L 78.246094 78.101562 L 0.964844 78.101562 Z M 0.964844 0.816406 " fill-opacity="1" fill-rule="nonzero"/></g></g></g></g></g></g><g clip-path="url(#139519c346)"><path fill="#000000" d="M 126.5 249.316406 C 125.492188 290.308594 100.230469 322.582031 64.535156 341.59375 C 80.167969 318.132812 89.042969 300.179688 87.5 285.1875 C 65.960938 285.1875 48.5 269.128906 48.5 249.316406 C 48.5 229.503906 65.960938 213.445312 87.5 213.445312 C 109.039062 213.445312 126.5 229.503906 126.5 249.316406 Z M 126.5 249.316406 " fill-opacity="1" fill-rule="nonzero"/></g></svg>